<?xml version="1.0" encoding="UTF-8" standalone="no"?>
<svg
   xmlns:dc="http://purl.org/dc/elements/1.1/"
   xmlns:cc="http://creativecommons.org/ns#"
   xmlns:rdf="http://www.w3.org/1999/02/22-rdf-syntax-ns#"
   xmlns:svg="http://www.w3.org/2000/svg"
   xmlns="http://www.w3.org/2000/svg"
   xmlns:sodipodi="http://sodipodi.sourceforge.net/DTD/sodipodi-0.dtd"
   xmlns:inkscape="http://www.inkscape.org/namespaces/inkscape"
   width="1000"
   height="1000"
   viewBox="0 0 264.58334 264.58334"
   version="1.1"
   id="svg8"
   inkscape:version="1.0 (6e3e5246a0, 2020-05-07)"
   sodipodi:docname="samplelogo.svg">
  <defs
     id="defs2" />
  <sodipodi:namedview
     id="base"
     pagecolor="#ffffff"
     bordercolor="#666666"
     borderopacity="1.0"
     inkscape:pageopacity="0.0"
     inkscape:pageshadow="2"
     inkscape:zoom="0.5"
     inkscape:cx="-305.59984"
     inkscape:cy="436.6518"
     inkscape:document-units="px"
     inkscape:current-layer="layer1"
     inkscape:document-rotation="0"
     showgrid="true"
     showborder="false"
     inkscape:snap-smooth-nodes="true"
     inkscape:window-width="1428"
     inkscape:window-height="910"
     inkscape:window-x="242"
     inkscape:window-y="88"
     inkscape:window-maximized="0"
     units="px">
    <inkscape:grid
       spacingy="13.229167"
       spacingx="13.229167"
       type="xygrid"
       id="grid833" />
  </sodipodi:namedview>
  <metadata
     id="metadata5">
    <rdf:RDF>
      <cc:Work
         rdf:about="">
        <dc:format>image/svg+xml</dc:format>
        <dc:type
           rdf:resource="http://purl.org/dc/dcmitype/StillImage" />
        <dc:title></dc:title>
      </cc:Work>
    </rdf:RDF>
  </metadata>
  <g
     inkscape:label="Layer 1"
     inkscape:groupmode="layer"
     id="layer1">
    <path
       d="M 264.58333,132.29167 A 132.29167,132.29167 0 0 1 132.29167,264.58333 132.29167,132.29167 0 0 1 -1e-5,132.29167 132.29167,132.29167 0 0 1 132.29167,0 132.29167,132.29167 0 0 1 264.58333,132.29167 Z m -26.45834,0 A 105.83333,105.83333 0 0 1 132.29167,238.12499 105.83333,105.83333 0 0 1 26.45833,132.29167 105.83333,105.83333 0 0 1 132.29167,26.45834 105.83333,105.83333 0 0 1 238.12499,132.29167 Z m -26.45832,0 a 79.375,79.375 0 0 1 -79.375,79.37499 79.375,79.375 0 0 1 -79.375001,-79.37499 79.375,79.375 0 0 1 79.375001,-79.374996 79.375,79.375 0 0 1 79.375,79.374996 z m -26.45834,0 a 52.916664,52.916664 0 0 1 -52.91666,52.91665 52.916664,52.916664 0 0 1 -52.916671,-52.91665 52.916664,52.916664 0 0 1 52.916671,-52.916666 52.916664,52.916664 0 0 1 52.91666,52.916666 z m -26.45833,0 A 26.458332,26.458332 0 0 1 132.29167,158.75 26.458332,26.458332 0 0 1 105.83333,132.29167 26.458332,26.458332 0 0 1 132.29167,105.83333 26.458332,26.458332 0 0 1 158.75,132.29167 Z"
       style="opacity:1;fill:none;fill-opacity:1;stroke:#000000;stroke-width:15.875;stroke-miterlimit:4;stroke-dasharray:none"
       id="path843" />
  </g>
</svg>
